# xmcd
#
# Track frame offsets:
#	150
#	17580
#	42630
#	72330
#	106918
#	138268
#	164098
#	212063
#	228563
#	260800
#	280515
#	303193
#	328460
#
# Disc length: 4551 seconds
#
# Revision: 5
# Processed by: cddbd v1.5.2PL0 Copyright (c) Steve Scherf et al.
# Submitted via: MusicWizard 6.0.2
#
DISCID=c411c50d
DTITLE=Toon Hermans - Toon Hermans 75 Jaar [CD 1/2)
DYEAR=1991
DGENRE=Nederlands
TTITLE0=De Liedjesman
TTITLE1=Is Dat De Spring Madame
TTITLE2=Tango Van Het Blote Kontje
TTITLE3=Lapland
TTITLE4=Suzanne
TTITLE5=Méditerranée
TTITLE6=Gala Banket
TTITLE7=Café Biljart
TTITLE8=Voorzitter Ons Genoegen
TTITLE9=Ornitholoog
TTITLE10=Vader Gaat Op Stap
TTITLE11=Snieklaas
TTITLE12=Dit Is 'n Plek Om Lief Te Hebben
EXTD=
EXTT0=
EXTT1=
EXTT2=
EXTT3=
EXTT4=
EXTT5=
EXTT6=
EXTT7=
EXTT8=
EXTT9=
EXTT10=
EXTT11=
EXTT12=
PLAYORDER=
